<svg id="Layer_1" data-name="Layer 1" xmlns="http://www.w3.org/2000/svg" viewBox="0 0 1200 500" width="1200" height="500"><defs><style>.cls-1{fill:#005ead;}.cls-2{fill:none;}.cls-3{fill:#0067b4;}</style></defs><title>BATCH_1_PATTERN_495122764_</title><rect class="cls-1" width="1200" height="500"/><rect class="cls-2" width="1200" height="500"/><polygon class="cls-2" points="9.18 346.89 0 340.44 0 353.32 9.18 346.89"/><polygon class="cls-2" points="438.49 458.92 468.26 479.84 497.83 459.06 468.07 438.14 438.49 458.92"/><polygon class="cls-2" points="227.62 269.16 201.99 251.16 0 393.12 0 429.16 227.62 269.16"/><polygon class="cls-2" points="112.96 231.34 143.48 252.72 174 231.34 174 231.33 143.48 209.95 112.96 231.34"/><polygon class="cls-2" points="115.83 190.57 90.19 172.55 6.55 231.34 90.19 290.12 115.83 272.1 57.83 231.34 115.83 190.57"/><polygon class="cls-2" points="62.6 153.18 36.94 135.16 0 161.11 0 197.15 62.6 153.18"/><polygon class="cls-2" points="9.09 115.78 0 109.37 0 122.17 9.09 115.78"/><polygon class="cls-2" points="202.19 211.38 227.81 193.37 0 33.26 0 69.3 202.19 211.38"/><polygon class="cls-2" points="36.95 327.51 62.59 309.51 0 265.53 0 301.56 36.95 327.51"/><polygon class="cls-2" points="710.7 153.18 685.05 135.16 548.21 231.34 685.05 327.51 710.7 309.51 599.49 231.34 710.7 153.18"/><polygon class="cls-2" points="1086.56 458.92 1116.34 479.84 1145.91 459.06 1116.14 438.14 1086.56 458.92"/><polygon class="cls-2" points="761.08 231.34 791.51 252.72 822 231.34 822 231.33 791.51 209.95 761.08 231.34"/><polygon class="cls-2" points="551.05 40.97 526.11 23.44 230.5 231.2 526.3 439.1 551.07 421.7 280.25 231.34 551.05 40.97"/><polygon class="cls-2" points="878.57 231.2 1174.37 439.1 1199.14 421.7 928.32 231.34 1199.12 40.97 1174.18 23.44 878.57 231.2"/><polygon class="cls-2" points="604.28 78.39 578.62 60.34 335.38 231.34 578.63 402.32 604.28 384.3 386.67 231.34 604.28 78.39"/><polygon class="cls-2" points="763.9 190.57 738.26 172.55 654.63 231.34 738.26 290.12 763.9 272.1 705.9 231.34 763.9 190.57"/><polygon class="cls-2" points="657.49 115.78 631.85 97.75 441.79 231.34 631.85 364.92 657.49 346.89 493.08 231.34 657.49 115.78"/><path class="cls-3" d="M1140.73,0l5.17,3.63-29.57,20.78L1086.56,3.49l5-3.49h-55.13l-5,3.49,57.33,40.29-25.64,18-83-58.31,5-3.49H930l-5,3.49,110.53,77.69-25.63,18L873.74,3.49l5-3.49H823.59l-5,3.49L982.35,118.57l-25.65,18L767.32,3.49l5-3.49H717.18l-5,3.49L929.14,156l-25.65,18L660.91,3.49l5-3.49H610.75l-5,3.49L875.93,193.37l-25.64,18L554.5,3.49h0l5-3.49H492.66l5.17,3.63L468.26,24.41,438.49,3.49l5-3.49H388.34l-5,3.49,57.33,40.29L415,61.8l-83-58.31,5-3.49H281.93l-5,3.49L387.48,81.18l-25.63,18L225.67,3.49l5-3.49H175.52l-5,3.49L334.28,118.57l-25.65,18L119.25,3.49l5-3.49H69.11l-5,3.49L281.06,156l-25.65,18L12.84,3.49l5-3.49H0V33.26L227.83,193.37l-25.65,18L0,69.3v40.07l9.09,6.41L0,122.16v38.94l37-26,25.63,18L0,197.15v68.37l62.6,44-25.66,18L0,301.56v38.88l9.18,6.44L0,353.32v39.8l202-142,25.61,18L0,429.16v59.55L16.11,500H71.24l-58.4-41.07L255.21,288.54l25.67,18L64.13,458.93,122.54,500h55.12l-58.41-41.07L308.44,326l25.64,18-163.55,115L228.95,500h55.13l-58.41-41.07,136-95.58,25.64,18L277,458.93,335.35,500h55.14l-58.41-41.07,82.77-58.18,25.64,18-57.14,40.16,57.34,40.31-1.08.77h56.47l30-21.11,24.94,17.55L546,500h66.9L554.5,458.94h0L850.1,251.15l25.62,18L605.77,458.93,664.18,500h55.13l-58.4-41.07L903.28,288.54l25.67,18L712.2,458.93,770.61,500h55.12l-58.41-41.07L956.52,326l25.64,18-163.55,115L877,500h55.13l-58.41-41.07,136-95.58,25.64,18L925,458.93,983.42,500h55.14l-58.41-41.07,82.77-58.18,25.64,18-57.14,40.16,57.34,40.31-1.08.77h56.47l30-21.11,24.94,17.55-5.05,3.56H1200V383.2l-26-18.3v0.61L983.12,231.34,1174,97.15v0.54l26-18.3V0h-59.27ZM90.19,290.12L6.55,231.34l83.64-58.79,25.64,18-58,40.77,58,40.76ZM174,231.34l-30.52,21.38L113,231.34l30.52-21.39L174,231.33h0Zm294.26,248.5-29.78-20.92,29.58-20.78,29.77,20.92Zm58-40.74L230.5,231.2,526.11,23.44,551.05,41,280.25,231.34,551.07,421.7Zm52.33-36.78-243.25-171,243.24-171,25.66,18.05L386.67,231.34l217.61,153Zm53.22-37.41L441.79,231.34,631.85,97.75l25.64,18L493.08,231.34,657.49,346.89Zm53.2-37.41L548.2,231.34l136.85-96.18,25.65,18L599.49,231.34,710.7,309.51Zm53.21-37.39-83.64-58.78,83.64-58.79,25.64,18-58,40.77,58,40.76ZM822,231.34l-30.49,21.38-30.44-21.38,30.44-21.39L822,231.33h0Zm294.34,248.5-29.78-20.92,29.58-20.78,29.77,20.92Zm-188-248.5L1199.14,421.7l-24.77,17.4L878.57,231.2,1174.18,23.44,1199.12,41Z"/><polygon class="cls-3" points="1200 347.59 1200 308.42 1174 290.09 1174 290.7 1089.54 231.34 1174 171.97 1174 172.51 1200 154.19 1200 115.06 1034.59 231.34 1200 347.59"/><polygon class="cls-3" points="1200 272.8 1200 233.43 1196.98 231.31 1200 229.18 1200 189.86 1141 231.34 1200 272.8"/></svg>